# xmcd
#
# Track frame offsets: 
#        150
#        15237
#        26309
#        39119
#        49846
#        62125
#        75825
#        88701
#        102114
#        113790
#        126801
#        138548
#        150806
#        164658
#        176533
#        190842
#        204208
#        227774
#        246723
#        265897
#        271871
#        283165
#        301395
#        318116
#
# Disc length: 4451 seconds
#
# Revision: 1
# Processed by: cddbd v1.5.2PL0 Copyright (c) Steve Scherf et al.
# Submitted via: ExactAudioCopy v1.3
#
DISCID=33116118
DTITLE=Leon McAuliffe - ''Take It Away Leon'' 1946 Big Band Sides, 194
DTITLE=6-48 Live and Majestic Rec.
DYEAR=2004
DGENRE=Country
TTITLE0=Steel Guitar Rag
TTITLE1=Hey Baba Rebop
TTITLE2=Twin Guitar Boogie
TTITLE3=A Good Man Is Hard to Find
TTITLE4=Steel Guitar Rag
TTITLE5=Twin Guitar Boogie
TTITLE6=(I Know My Baby Loves Me) In Her Own Peculiar Way
TTITLE7=The Covered Wagon Rolled Right Along
TTITLE8=Santa Fe Is a Long, Long Way from Broadway
TTITLE9=Tulsa, Straight Ahead
TTITLE10=Down at the Roadside Inn
TTITLE11=Search My Heart
TTITLE12=A Cowboy's Christmas Song
TTITLE13=A Plain Talkin' Man from the West
TTITLE14=Take It Away, Leon
TTITLE15=Nobody Cares (For Me Anymore)
TTITLE16=Opening and Hawaiian War Chant
TTITLE17=I'll Hold You in My Heart
TTITLE18=In Her Own Peculiar Way
TTITLE19=Naughty Angeline
TTITLE20=Long, Long Train
TTITLE21=Scotchin' With the Soda
TTITLE22=Stuffy
TTITLE23=What the Hell?
EXTD=
EXTT0=
EXTT1=
EXTT2=
EXTT3=
EXTT4=
EXTT5=
EXTT6=
EXTT7=
EXTT8=
EXTT9=
EXTT10=
EXTT11=
EXTT12=
EXTT13=
EXTT14=
EXTT15=
EXTT16=
EXTT17=
EXTT18=
EXTT19=
EXTT20=
EXTT21=
EXTT22=
EXTT23=
PLAYORDER=
